<svg width="341" height="41" viewBox="0 0 341 41" fill="none" xmlns="http://www.w3.org/2000/svg">
<path d="M23.4912 18.8187C23.3937 18.8187 23.28 18.8187 23.1501 18.8187C23.0526 18.8187 22.9551 18.8187 22.8577 18.8187C22.7927 18.8187 22.6952 18.8187 22.5653 18.8187C22.4353 18.8187 22.3216 18.8187 22.2241 18.8187C22.1592 18.8187 22.0617 18.8187 21.9317 18.8187C21.8343 18.7863 21.7531 18.77 21.6881 18.77C21.6231 18.7375 21.5419 18.705 21.4444 18.6725C21.3794 18.6401 21.3145 18.6076 21.2495 18.5751C21.217 18.5101 21.1845 18.4451 21.152 18.3801C21.1195 18.3152 21.1033 18.2339 21.1033 18.1365C21.1033 17.8766 21.217 17.6167 21.4444 17.3568C21.6718 17.0644 21.9155 16.9182 22.1754 16.9182C22.4678 16.9182 22.7764 16.9182 23.1013 16.9182C23.5562 16.9182 24.2222 16.9344 25.0994 16.9669C26.0091 16.9669 26.6588 16.9669 27.0487 16.9669C27.4385 15.8623 28.0071 14.1891 28.7543 11.9474C29.5016 9.67321 30.0701 7.96756 30.46 6.83046C22.1429 4.39381 15.8239 3.17549 11.5029 3.17549C10.5607 3.17549 9.63481 3.24047 8.72513 3.37042C7.81545 3.50038 6.8408 3.74404 5.80116 4.10142C4.79402 4.4263 3.96556 4.94612 3.31579 5.66087C2.6985 6.34313 2.38986 7.18783 2.38986 8.19498C2.38986 9.72194 3.07212 11.2976 4.43664 12.9221C5.83365 14.5465 7.36061 15.911 9.01753 17.0156C10.6744 18.0877 12.1852 19.0949 13.5497 20.0371C14.9467 20.9792 15.6452 21.5965 15.6452 21.8889C15.6452 21.9864 15.5802 22.0351 15.4503 22.0351C14.9305 22.0351 13.9071 21.629 12.3801 20.8168C10.8856 20.0371 9.48862 19.1924 8.18907 18.2827C6.92202 17.3405 5.7037 16.2684 4.53411 15.0663C3.36452 13.8642 2.45484 12.516 1.80507 11.0215C1.12281 9.49452 0.781679 7.91882 0.781679 6.29439C0.781679 2.68816 3.5757 0.885048 9.16373 0.885048C14.7193 0.885048 21.9642 2.4445 30.8986 5.5634C30.9311 5.43345 30.996 5.17354 31.0935 4.78368C31.2235 4.39381 31.3372 4.06893 31.4346 3.80902C31.5321 3.54911 31.6621 3.25671 31.8245 2.93183C31.987 2.60694 32.1819 2.36328 32.4093 2.20084C32.6367 2.03839 32.8804 1.95717 33.1403 1.95717C33.7576 1.95717 34.3261 2.28206 34.8459 2.93183C35.3658 3.5816 35.6257 4.21513 35.6257 4.83241C35.6257 5.1573 35.5282 5.31974 35.3333 5.31974C35.1059 5.31974 34.8135 5.17354 34.4561 4.88114C34.0987 4.58875 33.8875 4.44255 33.8226 4.44255C33.5626 4.44255 33.319 4.65372 33.0916 5.07607C32.8641 5.49843 32.7179 5.87204 32.653 6.19693C36.5516 7.52896 40.5152 8.19498 44.5438 8.19498C45.226 8.19498 45.8596 8.11376 46.4444 7.95131C47.0292 7.78887 47.484 7.62643 47.8089 7.46398C48.1338 7.30154 48.3287 7.22032 48.3937 7.22032C48.816 7.22032 49.0272 7.36652 49.0272 7.65891C49.0272 8.47113 48.4099 9.05592 47.1754 9.4133C45.9408 9.77067 44.8037 9.94936 43.7641 9.94936C42.1071 9.94936 40.1416 9.72194 37.8674 9.2671C35.6257 8.81226 33.7576 8.24371 32.2631 7.56145C32.1007 8.08127 31.6133 9.47827 30.8011 11.7525C29.9889 13.9942 29.3879 15.7323 28.998 16.9669C29.2254 16.9669 30.46 16.9994 32.7017 17.0644C34.9434 17.0968 36.4704 17.1131 37.2826 17.1131C37.8674 17.1131 38.3385 17.1943 38.6958 17.3568C39.0857 17.4867 39.2806 17.6492 39.2806 17.8441C39.2806 18.2015 38.7121 18.3801 37.575 18.3801C36.6328 18.3801 34.9109 18.4289 32.4093 18.5263C29.9077 18.6238 28.5919 18.6725 28.4619 18.6725C27.8771 20.7843 26.9837 23.1072 25.7816 25.6413C24.5796 28.143 23.345 30.0923 22.0779 31.4893C28.7056 34.7056 34.1962 36.3138 38.5496 36.3138C40.2066 36.3138 41.7173 35.8427 43.0818 34.9006C44.4463 33.9909 45.1286 32.7401 45.1286 31.1482C45.1286 30.4009 44.8687 29.6537 44.3489 28.9064C43.829 28.1267 43.5691 27.6394 43.5691 27.4445C43.5691 26.7947 43.829 26.4698 44.3489 26.4698C44.8037 26.4698 45.2423 26.8921 45.6646 27.7369C46.1195 28.5816 46.3469 29.6049 46.3469 30.807C46.3469 33.1137 45.4372 34.9006 43.6179 36.1676C41.831 37.4672 39.7355 38.1169 37.3313 38.1169C35.7394 38.1169 33.8713 37.8083 31.727 37.191C29.6153 36.5737 27.9909 36.0214 26.8538 35.5341C25.7167 35.0468 23.9298 34.2346 21.4931 33.0975C21.0708 32.9025 20.7459 32.7563 20.5185 32.6589C17.6595 35.3229 14.102 36.655 9.84599 36.655C8.22156 36.655 6.77582 36.3463 5.50877 35.729C4.24171 35.1118 3.60818 34.0559 3.60818 32.5614C3.60818 31.0669 4.19298 29.8649 5.36257 28.9552C6.53216 28.013 7.89668 27.5419 9.45613 27.5419C12.1527 27.5419 15.8726 28.6303 20.616 30.807C22.2079 28.7278 24.1734 24.7154 26.5126 18.77C26.3502 18.77 25.9116 18.7863 25.1968 18.8187C24.4821 18.8187 23.9135 18.8187 23.4912 18.8187ZM19.4951 32.1228C18.0981 31.473 16.2625 30.872 13.9883 30.3197C11.7466 29.7674 9.92721 29.4912 8.5302 29.4912C6.35347 29.4912 5.2651 30.1573 5.2651 31.4893C5.2651 32.3015 5.7037 33.0162 6.58089 33.6335C7.45808 34.2833 8.40025 34.7219 9.40739 34.9493C10.4145 35.2092 11.3242 35.3392 12.1364 35.3392C14.898 35.3392 17.3508 34.2671 19.4951 32.1228ZM61.5306 16.2846C61.4656 16.9344 61.0433 17.8603 60.2636 19.0624C59.4838 20.2645 58.8828 20.8655 58.4604 20.8655C58.3305 20.8655 58.2655 20.7681 58.2655 20.5731C58.2655 20.2807 58.4442 19.6959 58.8016 18.8187C59.1589 17.9091 59.3376 17.3243 59.3376 17.0644C59.3376 16.577 59.0452 16.3334 58.4604 16.3334C58.363 16.3334 57.8269 16.4146 56.8523 16.577C56.04 16.772 54.9679 17.2918 53.6359 18.1365C52.3363 18.9812 51.6866 19.9071 51.6866 20.9143C51.6866 21.2716 51.7678 21.5965 51.9302 21.8889C52.3526 22.7336 53.0836 23.4484 54.1232 24.0332C55.1953 24.6179 56.105 25.1703 56.8523 25.6901C57.632 26.2099 58.0218 26.8921 58.0218 27.7369C58.0218 29.1663 56.9172 30.5471 54.708 31.8791C52.5313 33.1787 50.6632 33.8285 49.1037 33.8285C48.8438 33.8285 48.6326 33.7147 48.4702 33.4873C48.3078 33.2924 48.2265 33.0812 48.2265 32.8538C48.2265 32.4639 48.4052 32.269 48.7626 32.269C49.8347 32.269 51.3292 31.9441 53.246 31.2944C55.1953 30.6121 56.17 29.8811 56.17 29.1014C56.17 28.6465 55.7964 28.1105 55.0491 27.4932C54.3344 26.8759 53.5384 26.3074 52.6612 25.7875C51.8165 25.2677 51.0206 24.6504 50.2733 23.9357C49.5586 23.1885 49.2012 22.4737 49.2012 21.7914C49.2012 21.2391 49.3961 20.7193 49.786 20.232C50.0784 19.8746 50.387 19.5335 50.7119 19.2086C51.0368 18.8512 51.3454 18.5426 51.6378 18.2827C51.9302 18.0228 52.2551 17.7629 52.6125 17.503C53.0024 17.243 53.3435 17.0156 53.6359 16.8207C53.9283 16.6258 54.2694 16.4308 54.6593 16.2359C55.0491 16.041 55.3578 15.8948 55.5852 15.7973C55.8126 15.6673 56.105 15.5211 56.4624 15.3587C56.8523 15.1963 57.1122 15.0988 57.2421 15.0663C57.4046 15.0013 57.6482 14.9039 57.9731 14.7739C58.298 14.644 58.4767 14.579 58.5092 14.579C59.0615 14.4165 59.4838 14.3353 59.7762 14.3353C60.9458 14.3353 61.5306 14.9851 61.5306 16.2846ZM67.2765 14.7252L67.4714 14.0429C67.5689 13.6531 67.6176 13.3769 67.6176 13.2145C67.6176 13.0845 67.5852 12.9708 67.5202 12.8733C67.4552 12.7434 67.4227 12.6297 67.4227 12.5322C67.4227 12.4347 67.4714 12.2398 67.5689 11.9474C68.2187 9.86814 68.8035 8.48737 69.3233 7.80511C69.8756 7.12285 70.6716 6.78172 71.7112 6.78172C72.166 6.78172 72.426 6.92792 72.4909 7.22032C71.7762 8.74728 70.7853 11.2489 69.5182 14.7252H74.2453C75.155 14.7252 75.6098 14.8226 75.6098 15.0176C75.6098 15.3425 74.8626 15.6024 73.3681 15.7973C71.8736 15.9597 70.4442 16.041 69.0796 16.041C67.4552 20.6219 66.1394 25.0078 65.1323 29.1988C64.9698 29.8486 64.8886 30.3197 64.8886 30.6121C64.8886 31.1644 65.0673 31.4405 65.4247 31.4405C66.0744 31.4405 67.0166 30.872 68.2512 29.7349C69.5182 28.5653 70.2005 27.9805 70.298 27.9805C70.4604 27.9805 70.5416 28.078 70.5416 28.2729C70.5416 28.8252 70.3629 29.1826 70.0056 29.345C67.0166 32.0416 64.9211 33.3899 63.719 33.3899C62.9718 33.3899 62.5982 32.9188 62.5982 31.9766C62.5982 31.4568 62.988 29.9298 63.7677 27.3957C63.8652 27.0708 64.9048 23.3509 66.8867 16.2359C66.1069 16.3659 65.0186 16.4308 63.6216 16.4308C62.8743 16.4308 62.5007 16.2846 62.5007 15.9922C62.5007 15.7648 62.7119 15.5049 63.1342 15.2125C63.5566 14.8876 63.8977 14.7252 64.1576 14.7252H67.2765ZM84.0136 17.8441C84.2085 18.8512 84.306 19.6634 84.306 20.2807C84.306 20.9955 84.0623 21.6128 83.575 22.1326C83.0877 22.6199 82.4541 22.9773 81.6744 23.2047C80.8947 23.3996 80.1962 23.5458 79.5789 23.6433C78.9616 23.7083 78.3768 23.7408 77.8245 23.7408C77.4996 23.7408 77.126 23.7408 76.7037 23.7408C76.3138 23.7083 76.1026 23.692 76.0701 23.692C74.998 26.4211 74.4619 28.5653 74.4619 30.1248C74.4619 31.4243 74.9493 32.0741 75.9239 32.0741C76.6062 32.0741 77.4022 31.6517 78.3118 30.807C79.2215 29.9298 80.0175 29.0689 80.6998 28.2242C81.382 27.347 81.7881 26.9084 81.9181 26.9084C82.1455 26.9084 82.2592 27.0383 82.2592 27.2983C82.2592 28.2079 81.3658 29.475 79.5789 31.0994C77.792 32.6914 76.395 33.4873 75.3879 33.4873C74.5757 33.4873 73.8284 33.2437 73.1462 32.7563C72.4964 32.2365 72.1715 31.3918 72.1715 30.2222C72.1715 29.8649 72.2202 29.4425 72.3177 28.9552C72.5451 27.7206 72.8375 26.5185 73.1949 25.3489C73.5848 24.1794 73.7959 23.4646 73.8284 23.2047C73.3411 23.0747 73.0974 22.8148 73.0974 22.425C73.0974 22.0676 73.3736 21.8889 73.9259 21.8889H74.267C75.5666 19.3223 76.3138 17.8441 76.5087 17.4542C77.4184 15.7323 79.1565 14.8714 81.7231 14.8714C82.8278 14.8714 83.5912 15.8623 84.0136 17.8441ZM82.2592 20.1833C82.2592 19.371 82.178 18.6725 82.0155 18.0877C81.8531 17.503 81.6582 17.0968 81.4307 16.8694C81.2358 16.642 81.0246 16.5283 80.7972 16.5283C80.1474 16.5283 79.3677 17.2268 78.458 18.6238C77.5809 20.0208 76.9311 21.2554 76.5087 22.3275C76.5737 22.3275 76.8336 22.3437 77.2885 22.3762C77.7433 22.4087 78.1332 22.425 78.458 22.425C79.7901 22.425 80.7485 22.2788 81.3333 21.9864C81.9181 21.694 82.2267 21.0929 82.2592 20.1833ZM95.2042 2.63943C93.4174 6.34313 91.598 10.8266 89.7462 16.0897C87.8943 21.3204 86.5298 25.9012 85.6526 29.8324C85.6201 29.9298 85.6039 30.0598 85.6039 30.2222C85.6039 30.6121 85.7663 30.807 86.0912 30.807C86.2861 30.807 86.806 30.5634 87.6507 30.076C88.5278 29.5887 89.0802 29.345 89.3076 29.345C89.5025 29.345 89.6487 29.41 89.7462 29.54C89.7462 29.9298 88.934 30.6608 87.3095 31.7329C85.6851 32.7726 84.5318 33.2924 83.8495 33.2924C83.2322 33.2924 82.9236 33 82.9236 32.4152C82.9236 32.0903 82.9885 31.7492 83.1185 31.3918C83.9632 29.0851 84.7429 26.7947 85.4577 24.5205C86.2049 22.2463 87.0496 19.5497 87.9918 16.4308C88.934 13.2794 89.6325 10.9565 90.0873 9.46203C90.1848 9.16963 90.2335 8.87724 90.2335 8.58484C90.2335 8.45489 90.201 8.34118 90.136 8.24371C90.1035 8.11376 90.0873 8.00004 90.0873 7.90258C90.0873 7.80511 90.136 7.61018 90.2335 7.31779C90.8833 5.27101 91.4843 3.90649 92.0366 3.22423C92.5889 2.54197 93.4011 2.20084 94.4733 2.20084C94.9281 2.20084 95.1718 2.34703 95.2042 2.63943ZM103.913 2.63943C102.126 6.34313 100.307 10.8266 98.4553 16.0897C96.6034 21.3204 95.2389 25.9012 94.3617 29.8324C94.3292 29.9298 94.313 30.0598 94.313 30.2222C94.313 30.6121 94.4754 30.807 94.8003 30.807C94.9952 30.807 95.515 30.5634 96.3597 30.076C97.2369 29.5887 97.7892 29.345 98.0167 29.345C98.2116 29.345 98.3578 29.41 98.4553 29.54C98.4553 29.9298 97.643 30.6608 96.0186 31.7329C94.3942 32.7726 93.2408 33.2924 92.5586 33.2924C91.9413 33.2924 91.6327 33 91.6327 32.4152C91.6327 32.0903 91.6976 31.7492 91.8276 31.3918C92.6723 29.0851 93.452 26.7947 94.1668 24.5205C94.914 22.2463 95.7587 19.5497 96.7009 16.4308C97.643 13.2794 98.3415 10.9565 98.7964 9.46203C98.8939 9.16963 98.9426 8.87724 98.9426 8.58484C98.9426 8.45489 98.9101 8.34118 98.8451 8.24371C98.8126 8.11376 98.7964 8.00004 98.7964 7.90258C98.7964 7.80511 98.8451 7.61018 98.9426 7.31779C99.5924 5.27101 100.193 3.90649 100.746 3.22423C101.298 2.54197 102.11 2.20084 103.182 2.20084C103.637 2.20084 103.881 2.34703 103.913 2.63943ZM115.693 29.1014C115.66 29.1339 115.514 29.2801 115.254 29.54C114.994 29.7674 114.783 29.9461 114.62 30.076C114.458 30.206 114.214 30.4172 113.889 30.7096C113.597 30.9695 113.337 31.1806 113.11 31.3431C112.882 31.5055 112.606 31.7005 112.281 31.9279C111.956 32.1553 111.664 32.334 111.404 32.4639C111.177 32.5614 110.933 32.6589 110.673 32.7563C110.413 32.8538 110.17 32.9025 109.942 32.9025C109.26 32.9025 108.854 32.4964 108.724 31.6842C108.724 30.3197 109.26 27.8018 110.332 24.1306C105.979 30.141 102.86 33.1462 100.975 33.1462C100.196 33.1462 99.8057 32.5614 99.8057 31.3918C99.8057 29.8973 100.244 27.8831 101.121 25.3489C102.031 22.7823 103.136 20.4757 104.435 18.4289C105.735 16.3496 106.872 15.31 107.847 15.31H107.993L108.529 14.9201C108.821 14.5952 109.276 14.4328 109.893 14.4328C110.381 14.4328 111.063 14.5627 111.94 14.8226C112.817 15.0826 113.305 15.2125 113.402 15.2125C113.532 15.2125 113.695 15.0826 113.889 14.8226C114.117 14.5627 114.377 14.4328 114.669 14.4328C115.481 14.4328 115.888 14.7902 115.888 15.5049C115.888 15.7973 115.823 16.1222 115.693 16.4796C115.595 16.8369 115.433 17.2593 115.205 17.7466C115.01 18.2015 114.897 18.4776 114.864 18.5751C114.832 18.6401 114.669 18.7375 114.377 18.8675C114.117 18.9974 113.971 19.1111 113.938 19.2086C113.223 21.2229 112.59 23.3834 112.038 25.6901C111.485 27.9643 111.209 29.3613 111.209 29.8811C111.209 30.6933 111.437 31.0994 111.891 31.0994C112.346 31.0994 112.899 30.8233 113.548 30.271C114.231 29.7187 114.815 29.1663 115.303 28.614C115.79 28.0617 116.05 27.7856 116.082 27.7856C116.147 27.7856 116.18 27.8506 116.18 27.9805C116.18 28.4678 116.017 28.8415 115.693 29.1014ZM112.476 16.1384C112.281 16.1384 111.94 16.1059 111.453 16.041C110.998 15.976 110.608 15.9435 110.283 15.9435C109.828 15.9435 109.341 16.0085 108.821 16.1384C108.009 16.3659 106.677 18.2989 104.825 21.9376C102.973 25.5439 102.047 28.2404 102.047 30.0273C102.047 30.5796 102.21 30.8558 102.535 30.8558C103.217 30.8558 104.419 29.8649 106.141 27.8831C107.895 25.9012 109.049 24.488 109.601 23.6433C110.413 22.3437 111.16 20.9467 111.843 19.4523C112.525 17.9253 112.866 16.9182 112.866 16.4308C112.866 16.2359 112.785 16.1384 112.622 16.1384H112.476ZM166.828 24.6667C165.268 26.8109 163.205 28.679 160.639 30.271C158.072 31.8629 155.522 33.0162 152.988 33.731C150.486 34.4457 148.147 34.8031 145.97 34.8031C144.086 34.8031 142.64 34.527 141.633 33.9747C140.626 33.4224 139.992 32.7238 139.732 31.8791C139.732 31.8467 139.716 31.8142 139.684 31.7817C139.684 31.7167 139.667 31.668 139.635 31.6355C139.505 31.7979 139.261 32.1553 138.904 32.7076C138.579 33.2274 138.303 33.6173 138.075 33.8772C137.588 34.397 137.182 34.6569 136.857 34.6569C136.337 34.6569 136.077 34.0071 136.077 32.7076C136.077 23.7732 138.352 14.5627 142.9 5.07607C142.705 5.10856 142.023 5.25476 140.853 5.51467C139.684 5.74209 138.66 5.95327 137.783 6.1482C136.938 6.34313 135.915 6.65177 134.713 7.07412C133.511 7.49647 132.13 8.04878 130.571 8.73104C129.011 9.38081 127.695 10.1768 126.623 11.1189C125.551 12.0286 125.015 12.9383 125.015 13.848C125.015 14.3678 125.226 14.9039 125.649 15.4562C126.071 16.0085 126.526 16.4308 127.013 16.7232C127.565 17.243 127.907 17.6004 128.036 17.7953H127.842C127.939 18.0553 127.825 18.1852 127.5 18.1852C127.435 18.1852 127.354 18.169 127.257 18.1365C127.159 18.104 127.029 18.0553 126.867 17.9903C126.704 17.9253 126.574 17.8766 126.477 17.8441C125.34 17.1293 124.593 16.577 124.235 16.1872C123.261 15.18 122.773 14.1891 122.773 13.2145C122.773 12.1098 123.407 11.0377 124.674 9.99809C125.908 8.95846 127.403 8.09751 129.157 7.41525C130.912 6.7005 132.829 6.05073 134.908 5.46594C136.987 4.88114 138.758 4.45879 140.22 4.19888C141.682 3.90649 142.835 3.71155 143.68 3.61409C144.329 2.18459 144.947 1.14496 145.532 0.495184H145.629C146.539 0.267765 147.383 0.154056 148.163 0.154056C148.521 0.154056 148.699 0.219033 148.699 0.348988C147.919 1.12871 147.237 2.1521 146.652 3.41916C146.717 3.41916 146.799 3.41916 146.896 3.41916C149.723 3.41916 152.354 3.67906 154.791 4.19888C157.227 4.68621 159.307 5.38471 161.029 6.29439C162.783 7.17159 164.277 8.21122 165.512 9.4133C166.779 10.6154 167.721 11.9149 168.339 13.3119C168.956 14.6764 169.264 16.1059 169.264 17.6004C169.264 20.0371 168.452 22.3925 166.828 24.6667ZM138.222 31.3431C138.254 31.3106 138.4 31.1482 138.66 30.8558C138.92 30.5309 139.148 30.3034 139.343 30.1735C139.537 30.0111 139.716 29.9298 139.879 29.9298C139.944 29.9298 140.009 29.9461 140.073 29.9786C140.138 30.0111 140.187 30.0598 140.22 30.1248C140.252 30.1897 140.285 30.2547 140.317 30.3197C140.35 30.3847 140.382 30.4659 140.415 30.5634C140.447 30.6283 140.528 30.8233 140.658 31.1482C140.821 31.4405 140.934 31.6517 140.999 31.7817C141.064 31.8791 141.178 32.0416 141.341 32.269C141.503 32.4964 141.665 32.6751 141.828 32.8051C142.023 32.9025 142.234 33 142.461 33.0975C143.274 33.3899 144.248 33.5361 145.385 33.5361C147.335 33.5361 149.528 33.13 151.964 32.3177C154.433 31.473 156.74 30.3847 158.884 29.0526C161.061 27.6881 162.718 26.2749 163.855 24.8129C166.259 21.7265 167.461 18.8512 167.461 16.1872C167.461 13.8155 166.503 11.7362 164.586 9.94936C162.702 8.16249 160.281 6.8467 157.325 6.002C154.401 5.15729 151.217 4.73494 147.773 4.73494C147.156 4.73494 146.539 4.75119 145.921 4.78368C141.6 12.321 139.05 21.1092 138.27 31.1482C138.27 31.2456 138.254 31.3106 138.222 31.3431ZM177.939 32.4639C177.906 32.6264 177.825 32.7888 177.695 32.9513C177.597 33.0812 177.467 33.1949 177.305 33.2924C177.175 33.4224 177.013 33.5036 176.818 33.5361C176.655 33.601 176.493 33.6335 176.33 33.6335C175.778 33.6335 175.502 33 175.502 31.7329C175.502 31.1806 175.876 30.6283 176.623 30.076C177.402 29.5237 178.004 29.2476 178.426 29.2476C178.523 29.2476 178.588 29.2801 178.621 29.345C178.556 29.6049 178.458 29.9786 178.328 30.4659C178.231 30.9532 178.133 31.3918 178.036 31.7817C177.971 32.1391 177.939 32.3665 177.939 32.4639ZM214.16 20.3782C214.257 20.3782 214.404 20.3944 214.599 20.4269C214.826 20.4594 215.005 20.4757 215.135 20.4757C215.849 18.5263 216.548 16.4958 217.23 14.384C217.945 12.2398 218.595 10.2093 219.179 8.29244C219.764 6.37562 220.122 5.20603 220.252 4.78368C220.512 4.10142 220.999 3.76029 221.714 3.76029C222.298 3.76029 222.591 4.0202 222.591 4.54001C222.591 4.60499 222.575 4.66997 222.542 4.73494C222.542 4.76743 222.542 4.81616 222.542 4.88114C221.145 10.0468 219.407 15.245 217.328 20.4757C219.472 20.3457 221.437 20.1345 223.224 19.8421C225.044 19.5172 226.619 19.1436 227.951 18.7213C229.283 18.2664 230.437 17.7791 231.411 17.2593C232.419 16.707 233.231 16.1222 233.848 15.5049C234.465 14.8876 234.92 14.2703 235.213 13.6531C235.505 13.0033 235.651 12.3373 235.651 11.655C235.651 9.25086 234.059 7.09037 230.875 5.17354C227.724 3.25671 223.874 2.2983 219.326 2.2983C216.434 2.2983 213.689 2.63943 211.09 3.32169C208.523 3.97146 206.428 4.91363 204.803 6.1482C203.211 7.35028 202.415 8.68231 202.415 10.1443C202.415 11.8987 203.617 13.6855 206.022 15.5049C206.606 15.9597 206.899 16.2521 206.899 16.3821C206.899 16.4796 206.818 16.5283 206.655 16.5283C206.428 16.5283 206.087 16.4471 205.632 16.2846C205.209 16.1222 204.901 15.9597 204.706 15.7973C201.652 13.5556 200.125 11.3951 200.125 9.31583C200.125 8.08127 200.661 6.94417 201.733 5.90453C202.838 4.83241 204.3 3.95522 206.119 3.27296C207.938 2.55821 210.018 2.0059 212.357 1.61604C214.696 1.22618 217.133 1.03125 219.667 1.03125C222.656 1.03125 225.336 1.3074 227.708 1.8597C230.112 2.37952 232.045 3.09427 233.507 4.00395C235.001 4.91363 236.122 5.93702 236.87 7.07412C237.649 8.17873 238.039 9.36457 238.039 10.6316C238.039 11.9961 237.584 13.3282 236.675 14.6277C235.765 15.9273 234.449 17.1131 232.727 18.1852C231.038 19.2248 228.829 20.0695 226.1 20.7193C223.371 21.3366 220.349 21.6452 217.035 21.6452C216.97 21.6452 216.905 21.6452 216.84 21.6452C215.768 24.2118 214.68 26.5673 213.575 28.7115C212.471 30.8233 211.252 32.8213 209.92 34.7056C208.588 36.6225 207.175 38.1007 205.68 39.1403C204.218 40.2125 202.757 40.7485 201.295 40.7485C198.793 40.7485 196.372 39.1241 194.033 35.8752C192.766 34.0884 192.133 31.7979 192.133 29.0039C192.133 28.3866 192.181 27.8506 192.279 27.3957C192.409 26.9084 192.571 26.6647 192.766 26.6647C193.026 26.6647 193.189 27.1196 193.254 28.0292C193.254 28.4841 193.351 29.1176 193.546 29.9298C193.741 30.742 194.066 31.6842 194.521 32.7563C194.975 33.796 195.528 34.7706 196.178 35.6803C196.827 36.6225 197.672 37.4022 198.712 38.0195C199.784 38.6693 200.921 38.9941 202.123 38.9941C202.35 38.9941 202.562 38.9779 202.757 38.9454C206.525 38.588 210.521 32.8051 214.745 21.5965C214.485 21.499 214.257 21.3691 214.063 21.2066C213.868 21.0117 213.77 20.833 213.77 20.6706C213.77 20.4757 213.9 20.3782 214.16 20.3782ZM249.565 29.1014C249.533 29.1339 249.386 29.2801 249.127 29.54C248.867 29.7674 248.655 29.9461 248.493 30.076C248.331 30.206 248.087 30.4172 247.762 30.7096C247.47 30.9695 247.21 31.1806 246.982 31.3431C246.755 31.5055 246.479 31.7005 246.154 31.9279C245.829 32.1553 245.537 32.334 245.277 32.4639C245.049 32.5614 244.806 32.6589 244.546 32.7563C244.286 32.8538 244.042 32.9025 243.815 32.9025C243.132 32.9025 242.726 32.4964 242.596 31.6842C242.596 30.3197 243.132 27.8018 244.205 24.1306C239.851 30.141 236.732 33.1462 234.848 33.1462C234.068 33.1462 233.678 32.5614 233.678 31.3918C233.678 29.8973 234.117 27.8831 234.994 25.3489C235.904 22.7823 237.008 20.4757 238.308 18.4289C239.607 16.3496 240.745 15.31 241.719 15.31H241.865L242.401 14.9201C242.694 14.5952 243.149 14.4328 243.766 14.4328C244.253 14.4328 244.936 14.5627 245.813 14.8226C246.69 15.0826 247.177 15.2125 247.275 15.2125C247.405 15.2125 247.567 15.0826 247.762 14.8226C247.989 14.5627 248.249 14.4328 248.542 14.4328C249.354 14.4328 249.76 14.7902 249.76 15.5049C249.76 15.7973 249.695 16.1222 249.565 16.4796C249.468 16.8369 249.305 17.2593 249.078 17.7466C248.883 18.2015 248.769 18.4776 248.737 18.5751C248.704 18.6401 248.542 18.7375 248.249 18.8675C247.989 18.9974 247.843 19.1111 247.811 19.2086C247.096 21.2229 246.463 23.3834 245.91 25.6901C245.358 27.9643 245.082 29.3613 245.082 29.8811C245.082 30.6933 245.309 31.0994 245.764 31.0994C246.219 31.0994 246.771 30.8233 247.421 30.271C248.103 29.7187 248.688 29.1663 249.175 28.614C249.663 28.0617 249.923 27.7856 249.955 27.7856C250.02 27.7856 250.053 27.8506 250.053 27.9805C250.053 28.4678 249.89 28.8415 249.565 29.1014ZM246.349 16.1384C246.154 16.1384 245.813 16.1059 245.325 16.041C244.871 15.976 244.481 15.9435 244.156 15.9435C243.701 15.9435 243.214 16.0085 242.694 16.1384C241.882 16.3659 240.55 18.2989 238.698 21.9376C236.846 25.5439 235.92 28.2404 235.92 30.0273C235.92 30.5796 236.082 30.8558 236.407 30.8558C237.09 30.8558 238.292 29.8649 240.014 27.8831C241.768 25.9012 242.921 24.488 243.474 23.6433C244.286 22.3437 245.033 20.9467 245.715 19.4523C246.398 17.9253 246.739 16.9182 246.739 16.4308C246.739 16.2359 246.657 16.1384 246.495 16.1384H246.349ZM256.783 14.7252L256.978 14.0429C257.075 13.6531 257.124 13.3769 257.124 13.2145C257.124 13.0845 257.091 12.9708 257.026 12.8733C256.961 12.7434 256.929 12.6297 256.929 12.5322C256.929 12.4347 256.978 12.2398 257.075 11.9474C257.725 9.86814 258.31 8.48737 258.829 7.80511C259.382 7.12285 260.178 6.78172 261.217 6.78172C261.672 6.78172 261.932 6.92792 261.997 7.22032C261.282 8.74728 260.291 11.2489 259.024 14.7252H263.751C264.661 14.7252 265.116 14.8226 265.116 15.0176C265.116 15.3425 264.369 15.6024 262.874 15.7973C261.38 15.9597 259.95 16.041 258.586 16.041C256.961 20.6219 255.645 25.0078 254.638 29.1988C254.476 29.8486 254.395 30.3197 254.395 30.6121C254.395 31.1644 254.573 31.4405 254.931 31.4405C255.581 31.4405 256.523 30.872 257.757 29.7349C259.024 28.5653 259.707 27.9805 259.804 27.9805C259.966 27.9805 260.048 28.078 260.048 28.2729C260.048 28.8252 259.869 29.1826 259.512 29.345C256.523 32.0416 254.427 33.3899 253.225 33.3899C252.478 33.3899 252.104 32.9188 252.104 31.9766C252.104 31.4568 252.494 29.9298 253.274 27.3957C253.371 27.0708 254.411 23.3509 256.393 16.2359C255.613 16.3659 254.525 16.4308 253.128 16.4308C252.38 16.4308 252.007 16.2846 252.007 15.9922C252.007 15.7648 252.218 15.5049 252.64 15.2125C253.063 14.8876 253.404 14.7252 253.664 14.7252H256.783ZM268.062 14.7252L268.257 14.0429C268.354 13.6531 268.403 13.3769 268.403 13.2145C268.403 13.0845 268.37 12.9708 268.305 12.8733C268.24 12.7434 268.208 12.6297 268.208 12.5322C268.208 12.4347 268.257 12.2398 268.354 11.9474C269.004 9.86814 269.589 8.48737 270.108 7.80511C270.661 7.12285 271.457 6.78172 272.496 6.78172C272.951 6.78172 273.211 6.92792 273.276 7.22032C272.561 8.74728 271.57 11.2489 270.303 14.7252H275.03C275.94 14.7252 276.395 14.8226 276.395 15.0176C276.395 15.3425 275.648 15.6024 274.153 15.7973C272.659 15.9597 271.229 16.041 269.865 16.041C268.24 20.6219 266.924 25.0078 265.917 29.1988C265.755 29.8486 265.674 30.3197 265.674 30.6121C265.674 31.1644 265.852 31.4405 266.21 31.4405C266.859 31.4405 267.802 30.872 269.036 29.7349C270.303 28.5653 270.986 27.9805 271.083 27.9805C271.245 27.9805 271.327 28.078 271.327 28.2729C271.327 28.8252 271.148 29.1826 270.791 29.345C267.802 32.0416 265.706 33.3899 264.504 33.3899C263.757 33.3899 263.383 32.9188 263.383 31.9766C263.383 31.4568 263.773 29.9298 264.553 27.3957C264.65 27.0708 265.69 23.3509 267.672 16.2359C266.892 16.3659 265.804 16.4308 264.407 16.4308C263.659 16.4308 263.286 16.2846 263.286 15.9922C263.286 15.7648 263.497 15.5049 263.919 15.2125C264.342 14.8876 264.683 14.7252 264.943 14.7252H268.062ZM284.799 17.8441C284.994 18.8512 285.091 19.6634 285.091 20.2807C285.091 20.9955 284.847 21.6128 284.36 22.1326C283.873 22.6199 283.239 22.9773 282.459 23.2047C281.68 23.3996 280.981 23.5458 280.364 23.6433C279.747 23.7083 279.162 23.7408 278.61 23.7408C278.285 23.7408 277.911 23.7408 277.489 23.7408C277.099 23.7083 276.888 23.692 276.855 23.692C275.783 26.4211 275.247 28.5653 275.247 30.1248C275.247 31.4243 275.734 32.0741 276.709 32.0741C277.391 32.0741 278.187 31.6517 279.097 30.807C280.007 29.9298 280.803 29.0689 281.485 28.2242C282.167 27.347 282.573 26.9084 282.703 26.9084C282.931 26.9084 283.044 27.0383 283.044 27.2983C283.044 28.2079 282.151 29.475 280.364 31.0994C278.577 32.6914 277.18 33.4873 276.173 33.4873C275.361 33.4873 274.613 33.2437 273.931 32.7563C273.281 32.2365 272.957 31.3918 272.957 30.2222C272.957 29.8649 273.005 29.4425 273.103 28.9552C273.33 27.7206 273.623 26.5185 273.98 25.3489C274.37 24.1794 274.581 23.4646 274.613 23.2047C274.126 23.0747 273.882 22.8148 273.882 22.425C273.882 22.0676 274.159 21.8889 274.711 21.8889H275.052C276.352 19.3223 277.099 17.8441 277.294 17.4542C278.203 15.7323 279.942 14.8714 282.508 14.8714C283.613 14.8714 284.376 15.8623 284.799 17.8441ZM283.044 20.1833C283.044 19.371 282.963 18.6725 282.801 18.0877C282.638 17.503 282.443 17.0968 282.216 16.8694C282.021 16.642 281.81 16.5283 281.582 16.5283C280.933 16.5283 280.153 17.2268 279.243 18.6238C278.366 20.0208 277.716 21.2554 277.294 22.3275C277.359 22.3275 277.619 22.3437 278.074 22.3762C278.528 22.4087 278.918 22.425 279.243 22.425C280.575 22.425 281.534 22.2788 282.118 21.9864C282.703 21.694 283.012 21.0929 283.044 20.1833ZM298.684 18.6238C298.424 18.9812 298.067 19.3386 297.612 19.6959C297.19 20.0208 296.865 20.1833 296.637 20.1833C296.442 20.1833 296.345 20.0858 296.345 19.8909C296.345 19.7609 296.491 19.3061 296.784 18.5263C297.108 17.7466 297.271 17.2106 297.271 16.9182C297.271 16.6907 297.19 16.577 297.027 16.577C295.89 16.577 294.201 18.3314 291.959 21.8402C289.75 25.3489 288.109 28.7765 287.037 32.1228C286.842 32.3827 286.533 32.6426 286.111 32.9025C285.689 33.1624 285.331 33.2924 285.039 33.2924C284.844 33.2924 284.698 33.2112 284.6 33.0487C284.6 32.1715 284.698 31.3756 284.893 30.6608C285.12 29.9461 285.396 29.5237 285.721 29.3938C286.436 26.6972 286.939 24.6829 287.232 23.3509L287.719 21.3041C287.784 21.0767 287.817 20.8168 287.817 20.5244C287.817 20.3619 287.784 20.2157 287.719 20.0858C287.654 19.9558 287.622 19.8259 287.622 19.6959C287.622 19.501 287.654 19.3223 287.719 19.1599C288.239 17.1131 288.759 15.7161 289.279 14.9688C289.831 14.2216 290.627 13.848 291.667 13.848C292.056 13.848 292.284 13.9779 292.349 14.2379C292.316 14.3353 292.073 14.9039 291.618 15.9435C291.195 16.9831 290.789 17.9578 290.399 18.8675C290.042 19.7772 289.636 20.9305 289.181 22.3275C288.726 23.7245 288.369 25.0078 288.109 26.1774C289.181 24.0656 290.838 21.5315 293.08 18.5751C295.322 15.5861 297.173 14.0917 298.635 14.0917C299.415 14.0917 299.805 14.579 299.805 15.5536C299.805 16.5608 299.431 17.5842 298.684 18.6238ZM311.429 16.2846C311.364 16.9344 310.942 17.8603 310.162 19.0624C309.382 20.2645 308.781 20.8655 308.359 20.8655C308.229 20.8655 308.164 20.7681 308.164 20.5731C308.164 20.2807 308.343 19.6959 308.7 18.8187C309.058 17.9091 309.236 17.3243 309.236 17.0644C309.236 16.577 308.944 16.3334 308.359 16.3334C308.262 16.3334 307.726 16.4146 306.751 16.577C305.939 16.772 304.867 17.2918 303.535 18.1365C302.235 18.9812 301.585 19.9071 301.585 20.9143C301.585 21.2716 301.666 21.5965 301.829 21.8889C302.251 22.7336 302.982 23.4484 304.022 24.0332C305.094 24.6179 306.004 25.1703 306.751 25.6901C307.531 26.2099 307.92 26.8921 307.92 27.7369C307.92 29.1663 306.816 30.5471 304.607 31.8791C302.43 33.1787 300.562 33.8285 299.002 33.8285C298.742 33.8285 298.531 33.7147 298.369 33.4873C298.206 33.2924 298.125 33.0812 298.125 32.8538C298.125 32.4639 298.304 32.269 298.661 32.269C299.733 32.269 301.228 31.9441 303.145 31.2944C305.094 30.6121 306.069 29.8811 306.069 29.1014C306.069 28.6465 305.695 28.1105 304.948 27.4932C304.233 26.8759 303.437 26.3074 302.56 25.7875C301.715 25.2677 300.919 24.6504 300.172 23.9357C299.457 23.1885 299.1 22.4737 299.1 21.7914C299.1 21.2391 299.295 20.7193 299.685 20.232C299.977 19.8746 300.286 19.5335 300.611 19.2086C300.935 18.8512 301.244 18.5426 301.536 18.2827C301.829 18.0228 302.154 17.7629 302.511 17.503C302.901 17.243 303.242 17.0156 303.535 16.8207C303.827 16.6258 304.168 16.4308 304.558 16.2359C304.948 16.041 305.256 15.8948 305.484 15.7973C305.711 15.6673 306.004 15.5211 306.361 15.3587C306.751 15.1963 307.011 15.0988 307.141 15.0663C307.303 15.0013 307.547 14.9039 307.872 14.7739C308.197 14.644 308.375 14.579 308.408 14.579C308.96 14.4165 309.382 14.3353 309.675 14.3353C310.844 14.3353 311.429 14.9851 311.429 16.2846ZM323.657 18.4776C324.274 18.5751 324.583 18.7538 324.583 19.0137C324.583 19.2736 324.339 19.5335 323.852 19.7934C323.364 20.0208 322.926 20.1345 322.536 20.1345C322.536 23.9357 321.545 27.1845 319.563 29.8811C317.581 32.5776 315.616 33.9259 313.666 33.9259C311.782 33.9259 310.84 32.5614 310.84 29.8324C310.84 29.0851 310.905 28.3379 311.035 27.5907C311.197 26.746 311.49 25.6576 311.912 24.3256C312.334 22.9935 312.887 21.5478 313.569 19.9883C314.251 18.4289 315.08 17.1131 316.054 16.041C317.061 14.9364 318.069 14.384 319.076 14.384H319.417C319.417 13.9292 319.547 13.5393 319.807 13.2145C320.067 12.8896 320.424 12.7271 320.879 12.7271C321.334 12.7596 321.74 13.718 322.097 15.6024C322.455 17.4542 322.974 18.4126 323.657 18.4776ZM321.171 19.7447C320.879 19.5822 320.521 19.0137 320.099 18.039C319.677 17.0319 319.384 16.5283 319.222 16.5283C318.215 16.5283 317.045 18.0228 315.713 21.0117C314.381 23.9682 313.553 26.3074 313.228 28.0292C313.098 28.7765 313.033 29.4587 313.033 30.076C313.033 31.668 313.488 32.4639 314.397 32.4639C315.697 32.4639 317.143 31.1482 318.735 28.5166C320.359 25.8525 321.171 22.9285 321.171 19.7447ZM340.067 14.8714C338.41 17.6329 336.867 20.8005 335.437 24.3743C334.008 27.948 333.293 30.6283 333.293 32.4152C333.293 33 333.423 33.2924 333.683 33.2924C333.78 33.2924 334.089 33.13 334.609 32.8051C335.161 32.4802 335.486 32.3177 335.584 32.3177C335.779 32.3177 335.876 32.4152 335.876 32.6101C335.876 33 335.519 33.4386 334.804 33.9259C334.089 34.4133 333.374 34.6569 332.66 34.6569C331.717 34.6569 331.246 33.9584 331.246 32.5614C331.246 31.2944 331.506 29.8161 332.026 28.1267C332.546 26.4373 333.358 24.2768 334.463 21.6452C335.567 19.0137 336.12 17.6816 336.12 17.6491C336.282 17.2268 336.363 16.9019 336.363 16.6745C336.363 16.5121 336.315 16.4308 336.217 16.4308C336.055 16.4308 335.697 16.7232 335.145 17.308C333.748 18.8675 331.75 21.5315 329.151 25.3002C326.552 29.0689 325.22 31.3918 325.155 32.269C325.122 32.4964 324.814 32.8051 324.229 33.1949C323.644 33.6173 323.157 33.8285 322.767 33.8285C322.539 33.8285 322.409 33.7147 322.377 33.4873C322.442 33.5848 323.043 31.9604 324.18 28.614C325.35 25.2677 326.178 22.8473 326.665 21.3528C326.795 20.963 326.86 20.6706 326.86 20.4757C326.86 20.3457 326.828 20.232 326.763 20.1345C326.73 20.0046 326.714 19.9071 326.714 19.8421C326.714 19.7122 326.763 19.501 326.86 19.2086C327.608 17.1293 328.241 15.7648 328.761 15.115C329.281 14.4328 330.077 14.0917 331.149 14.0917C331.571 14.0917 331.815 14.2379 331.88 14.5302C329.216 19.9883 327.624 23.887 327.104 26.2261C332.465 17.5842 336.574 13.2632 339.433 13.2632C340.083 13.2632 340.408 13.4744 340.408 13.8967C340.408 14.1891 340.294 14.514 340.067 14.8714Z" fill="black"/>
</svg>
